# xmcd
#
# Track frame offsets:
#	150
#	2253
#	12104
#	25169
#	34662
#	43126
#	56793
#	69678
#	78095
#	89827
#	99575
#	111662
#	126742
#	137323
#	147959
#	157433
#	161475
#	165662
#	174890
#	182849
#	191416
#	201105
#	207056
#	209736
#	222801
#	232831
#	242765
#	253781
#	268459
#	275217
#	284674
#	295141
#	309707
#	321086
#	329239
#	338933
#	344984
#	356012
#	364855
#
# Disc length: 5256 seconds
#
# Revision: 0
# Processed by: cddbd v1.5.2PL0 Copyright (c) Steve Scherf et al.
# Submitted via: audiograbber 1.83.01
#
DISCID=7e148627
DTITLE=Various Artist - Nashville Stars On Tour - THE GERMAN CONCERT
DYEAR=2007
DGENRE=Country
TTITLE0=V.A. - Introduction
TTITLE1=Anita Kerr Singers - Night Train To Memphis
TTITLE2=Bobby Bare - 500 Miles Away From Home
TTITLE3=Chet Atkins - Windy And Warm
TTITLE4=Jim Reeves - Billy Bayou
TTITLE5=Anita Kerr Singers - Georgia On My Mind
TTITLE6=Bobby Bare - Shame On Me
TTITLE7=Chet Atkins - Java
TTITLE8=Chet Atkins - The Peanut Vendor
TTITLE9=Jim Reeves - Welcome To My World
TTITLE10=Anita Kerr Singers - Oh Lonesome Me
TTITLE11=Bobby Bare - Detroit City
TTITLE12=Chet Atkins - Wildwood Flower
TTITLE13=Jim Reeves - Four Walls
TTITLE14=Jim Reeves - He'll Have To Go
TTITLE15=Chet Atkins - Greensleeves
TTITLE16=Chet Atkins - Streets Of Laredo
TTITLE17=GROUP - Auf Wiedersehn
TTITLE18=Anita Kerr Singers - Night Train To Memphis
TTITLE19=Chet Atkins - Steel Guitar Rag
TTITLE20=Jim Reeves - Adios Amigo
TTITLE21=Group and Gus Backus - Deep In The Heart Of Texas
TTITLE22=Chet Atkins - Oh Susanna
TTITLE23=Bobby Bare - 500 Miles Away Fron Home
TTITLE24=Bobby Bare - Tennesse Waltz
TTITLE25=Anita Kerr Singers - Singing The Blues
TTITLE26=Bill Ramsey - Cigarettes And Whiskey And Wild, Wild Woman
TTITLE27=Chet Atkins - High Noon
TTITLE28=Jim Reeves - Mexican Joe
TTITLE29=Anita Kerr Singers - Tumbling Tumbleweeds
TTITLE30=Group and Bill Ramsey - Deep In The Heart Of Texas
TTITLE31=Bobby Bare - Detroit City
TTITLE32=Anita Kerr Singers - Oh Lonesome Me
TTITLE33=Chet Atkins - Alabama Jubilee
TTITLE34=V.A. - Oh Susanna Square Dance
TTITLE35=Jim Reeves - San Antonio Rose
TTITLE36=Anita Kerr Singers - On Top Of Old Smokey
TTITLE37=Group and Vico Torriani - Deep In The Heart Of Texas
TTITLE38=Kitty Prins - Interwiew with Jim Reeves
EXTD=
EXTT0=
EXTT1=
EXTT2=
EXTT3=
EXTT4=
EXTT5=
EXTT6=
EXTT7=
EXTT8=
EXTT9=
EXTT10=
EXTT11=
EXTT12=
EXTT13=
EXTT14=
EXTT15=
EXTT16=
EXTT17=
EXTT18=
EXTT19=
EXTT20=
EXTT21=
EXTT22=
EXTT23=
EXTT24=
EXTT25=
EXTT26=
EXTT27=
EXTT28=
EXTT29=
EXTT30=
EXTT31=
EXTT32=
EXTT33=
EXTT34=
EXTT35=
EXTT36=
EXTT37=
EXTT38=
PLAYORDER=
